<svg class="animated-hubexo-logo" width="706" height="195" viewBox="0 0 706 195" fill="none" xmlns="http://www.w3.org/2000/svg">

  <mask id="logo-h-stalk-mask" style="mask-type:alpha" maskUnits="userSpaceOnUse" x="12" y="97" width="34" height="90">
    <path d="M12.1223 131.296L12.0723 133.579V186.622H33.0733V133.319C33.1713 122.87 38.1203 113.565 45.7663 107.533C38.6633 105.149 32.1103 101.568 26.3423 97.026C17.9823 106.146 12.6843 118.114 12.1223 131.296Z" fill="#321432"></path>
  </mask>
  <g mask="url(#logo-h-stalk-mask)">
    <path id="logo-h-stalk" class="animated-path" style="--length: 105" d="M22 198.623V130.011C22 113.635 37.247 98.415 37.247 98.415" stroke="currentColor" stroke-width="25" stroke-miterlimit="10"></path>
  </g>
  <mask id="logo-o-mask" style="mask-type:alpha" maskUnits="userSpaceOnUse" x="588" y="79" width="110" height="109">
    <path d="M642.939 79.168C613.032 79.168 588.701 103.5 588.701 133.407C588.701 163.314 613.032 187.645 642.939 187.645C672.846 187.645 697.178 163.314 697.178 133.407C697.178 103.5 672.846 79.168 642.939 79.168ZM642.939 166.645C624.611 166.645 609.701 151.735 609.701 133.407C609.701 115.079 624.611 100.168 642.939 100.168C661.267 100.168 676.178 115.079 676.178 133.407C676.178 151.735 661.267 166.645 642.939 166.645Z" fill="#321432"></path>
  </mask>
  <g mask="url(#logo-o-mask)">
    <path id="logo-o" class="animated-path" style="--length: 275" d="M599.194 133.609C599.24 109.489 618.808 89.672 642.939 89.672C667.099 89.672 686.685 109.258 686.685 133.418C686.685 157.578 667.099 177.164 642.939 177.164C618.808 177.164 599.24 157.624 599.193 133.504" stroke="currentColor" stroke-width="25" stroke-miterlimit="10"></path>
  </g>
  <mask id="logo-x-cut-mask" style="mask-type:alpha" maskUnits="userSpaceOnUse" x="486" y="80" width="100" height="107">
    <path d="M506.597 125.964C508.441 124.65 510.348 123.405 512.323 122.246L525.728 114.379C520.313 110.706 515.909 106.013 512.897 100.67C509.397 94.462 507.547 87.388 507.547 80.213H486.547C486.547 90.992 489.332 101.632 494.603 110.982C497.726 116.521 501.787 121.571 506.596 125.963L506.597 125.964Z" fill="#321432"></path>
    <path d="M565.401 139.437C563.556 140.752 561.648 141.997 559.672 143.156L546.27 151.022C551.686 154.696 556.09 159.388 559.102 164.732C562.401 170.583 564.451 178.971 564.451 186.622H585.451C585.451 175.403 582.439 163.365 577.396 154.42C574.274 148.88 570.212 143.83 565.401 139.438V139.437Z" fill="#321432"></path>
  </mask>
  <g mask="url(#logo-x-cut-mask)">
    <path id="logo-x-cut" class="animated-path" style="--length: 148" d="M497.48 74.953C497.48 87.48 497.709 115.349 534.751 133.407C557.904 144.694 574.845 159.376 574.845 186.622V189.776" stroke="currentColor" stroke-width="25" stroke-miterlimit="10"></path>
  </g>
  <mask id="logo-x-mask" style="mask-type:alpha" maskUnits="userSpaceOnUse" x="486" y="80" width="100" height="107">
    <path d="M556.627 132.701C565.372 127.091 572.522 119.63 577.395 110.983C582.666 101.635 585.451 90.996 585.451 80.214H564.451C564.451 87.39 562.601 94.463 559.101 100.671C555.631 106.828 550.317 112.125 543.731 115.989L535.999 120.527L517.638 131.302C516.869 131.753 516.117 132.223 515.371 132.701C506.627 138.311 499.477 145.772 494.603 154.419C489.559 163.367 486.547 175.406 486.547 186.622H507.547C507.547 178.973 509.597 170.584 512.896 164.731C516.367 158.575 521.682 153.278 528.267 149.413L535.999 144.875L554.359 134.1C555.128 133.649 555.881 133.179 556.627 132.7V132.701Z" fill="#321432"></path>
  </mask>
  <g mask="url(#logo-x-mask)">
    <path id="logo-x" class="animated-path reverse" style="--length: 149" d="M574.845 74.953C574.845 87.48 574.616 115.349 537.574 133.407C514.421 144.694 497.48 159.376 497.48 186.622V190.341" stroke="currentColor" stroke-width="25" stroke-miterlimit="10"></path>
  </g>
  <mask id="logo-e-mask" style="mask-type:alpha" maskUnits="userSpaceOnUse" x="373" y="79" width="110" height="109">
    <path d="M481.586 122.907C481.92 124.602 482.176 126.324 482.35 128.07C479.66 100.659 456.482 79.168 428.376 79.168H428.156C398.249 79.168 373.918 103.5 373.918 133.407C373.918 163.314 398.249 187.645 428.156 187.645H428.376C445.598 187.645 461.412 179.74 471.766 165.957L463.37 159.65L454.974 153.343C448.625 161.796 438.93 166.643 428.376 166.643H428.156C413.497 166.643 401.033 157.101 396.627 143.905C395.524 140.602 394.918 137.074 394.918 133.405C394.918 129.736 395.524 126.208 396.627 122.905C401.033 109.709 413.497 100.166 428.156 100.166H428.376C443.035 100.166 455.499 109.708 459.906 122.905H405.437V143.905H482.616V133.405C482.616 132.498 482.592 131.596 482.547 130.7C482.509 129.945 482.448 129.196 482.38 128.45C482.368 128.323 482.363 128.195 482.351 128.069C482.177 126.323 481.921 124.601 481.587 122.906" fill="#321432"></path>
  </mask>
  <g mask="url(#logo-e-mask)">
    <path id="logo-e" class="animated-path" style="--length: 327" d="M400.927 133.854H471.316C471.316 109.83 451.841 90.355 427.817 90.355C403.793 90.355 384.318 109.83 384.318 133.854C384.318 157.878 403.793 177.353 427.817 177.353C445.835 177.353 461.294 166.398 467.897 150.786" stroke="currentColor" stroke-width="27" stroke-miterlimit="10"></path>
  </g>
  <mask id="logo-b-stalk-mask" style="mask-type:alpha" maskUnits="userSpaceOnUse" x="253" y="10" width="22" height="89">
    <path d="M274.736 77.878V10.938H253.736V98.126C259.11 89.893 266.295 82.949 274.736 77.878Z" fill="#321432"></path>
  </mask>
  <g mask="url(#logo-b-stalk-mask)">
    <path id="logo-b-stalk" class="animated-path" style="--length: 108" d="M264.236 2.953V110.529" stroke="currentColor" stroke-width="25" stroke-miterlimit="10"></path>
  </g>


  <mask id="logo-b-curl-mask" style="mask-type:alpha" maskUnits="userSpaceOnUse" x="253" y="79" width="110" height="109">
    <path d="M308.193 79.168H307.973C295.455 79.168 283.923 83.442 274.734 90.592C262.143 100.389 253.972 115.599 253.752 132.7C253.749 132.936 253.734 133.17 253.734 133.407V186.622H274.734V176.221C283.923 183.371 295.455 187.645 307.973 187.645H308.193C338.1 187.645 362.431 163.314 362.431 133.407C362.431 103.5 338.099 79.168 308.192 79.168H308.193ZM308.193 166.645H307.973C289.645 166.645 274.734 151.735 274.734 133.407C274.734 115.079 289.645 100.168 307.973 100.168H308.193C326.521 100.168 341.432 115.079 341.432 133.407C341.432 151.735 326.521 166.645 308.194 166.645H308.193Z" fill="#321432"></path>
  </mask>
  <g mask="url(#logo-b-curl-mask)">
    <path id="logo-b-curl" class="animated-path" style="--length: 338" d="M263 187.5C263 175 263 170.5 263 133.5C263 99 292.5 88.5 308.5 88.5C324.5 88.5 353 102 353 133C353 162.5 328 178.5 308.5 178.5C281 178.5 262.5 155.5 262.5 133.5" stroke="currentColor" stroke-width="23" stroke-miterlimit="10"></path>
  </g>

  <mask id="logo-u-mask" style="mask-type:alpha" maskUnits="userSpaceOnUse" x="132" y="80" width="110" height="107">
    <path d="M220.468 80.214V132.7C220.468 151.028 205.557 165.939 187.229 165.939C168.901 165.939 153.99 151.028 153.99 132.7V80.214H132.99V132.7C132.99 162.608 157.322 186.939 187.229 186.939C217.136 186.939 241.468 162.608 241.468 132.7V80.214H220.468Z" fill="#321432"></path>
  </mask>
  <g mask="url(#logo-u-mask)">
    <path id="logo-u" class="animated-path" style="--length: 263" d="M142.848 71.847V136.506C142.848 163.329 168.031 176.604 184.946 176.604C212.872 176.604 231.507 158.812 231.507 136.789V71.848" stroke="currentColor" stroke-width="25" stroke-miterlimit="10"></path>
  </g>
  <mask id="logo-h-curve-mask" style="mask-type:alpha" maskUnits="userSpaceOnUse" x="12" y="10" width="109" height="177">
    <path d="M66.3122 79.394C57.4342 79.394 49.0862 75.936 42.8092 69.659C36.5312 63.381 33.0742 55.034 33.0742 46.155V10.21H22.5742H12.0742V46.155C12.0742 64.091 20.8302 80.013 34.2862 89.893C43.2682 96.488 54.3402 100.394 66.3122 100.394C84.6402 100.394 99.5512 115.305 99.5512 133.633V186.622H120.551V133.633C120.551 103.726 96.2192 79.394 66.3122 79.394Z" fill="#321432"></path>
  </mask>
  <g mask="url(#logo-h-curve-mask)">
    <path id="logo-h-curve" class="animated-path" style="--length: 255" d="M22 -1V42.482C22 73.823 45.417 89.07 66.311 89.07C87.205 89.07 110.094 105.338 110.094 131.423V203.141" stroke="currentColor" stroke-width="25" stroke-miterlimit="10"></path>
  </g>
</svg>
