<svg xmlns:dc="http://purl.org/dc/elements/1.1/" xmlns:cc="http://creativecommons.org/ns#" xmlns:rdf="http://www.w3.org/1999/02/22-rdf-syntax-ns#" xmlns:svg="http://www.w3.org/2000/svg" xmlns="http://www.w3.org/2000/svg" viewBox="0 0 859.61334 258.04001" height="258.04001" width="859.61334" xml:space="preserve" id="svg2" version="1.1" xmlns:xlink="http://www.w3.org/1999/xlink">
 <metadata id="metadata8">
  <rdf:RDF>
   <cc:Work rdf:about="">
    <dc:format>
     image/svg+xml
    </dc:format>
    <dc:type rdf:resource="http://purl.org/dc/dcmitype/StillImage">
    </dc:type>
   </cc:Work>
  </rdf:RDF>
 </metadata>
 <defs id="defs6">
 </defs>
 <g transform="matrix(1.3333333,0,0,-1.3333333,0,258.04)" id="g10">
  <g transform="scale(0.1)" id="g12">
   <path id="path14" style="fill:#1782c5;fill-opacity:1;fill-rule:nonzero;stroke:none" d="m 1004.81,582.922 c -5.458,21.887 -25.587,37.039 -48.361,36.398 l -19.351,-2.422 c -24.735,-6.207 -49.993,-10.199 -75.461,-11.968 -48.364,-2.379 -56.102,16.281 -59.481,69.41 v 724.99 c -1.468,17.01 -9.867,32.73 -23.226,43.53 l -4.848,3.35 c -1.508,1.41 -3.137,2.66 -4.848,3.83 -51.914,24.51 -106.632,42.64 -163.023,54.09 h -3.824 c -70.289,17.29 -142.36,26.44 -214.805,27.25 -32.309,0 -64.609,-1.74 -96.734,-5.24 -49,-5.48 -97.508,-14.59 -145.121,-27.29 -21.012,-4.15 -36.754,-21.48 -38.7,-42.6 3.61,-19.03 8.789,-37.77 15.485,-55.99 9.672,-29.67 20.312,-36.84 39.179,-40.67 23.637,0.61 47.149,3.67 70.137,9.11 39.555,7.82 79.664,12.62 119.985,14.35 42.492,1.37 85.027,-0.69 127.203,-6.21 47.175,-3.99 92.773,-18.9 133.031,-43.57 v -281.86 h -8.723 l -204.617,-4.76 C 125.414,1039.43 0.605469,929.879 0.605469,715.969 -4.96094,630.48 27.9805,546.891 90.582,487.719 c 66.262,-51.387 149.106,-77.231 233.156,-72.758 110.086,-0.641 216.879,37.367 301.383,107.18 l 8.68,6.73 4.847,-10.082 c 19.918,-48.078 62.094,-83.668 113.184,-95.68 27.832,-6.859 56.473,-10.078 85.16,-9.597 8.508,-0.481 17.071,-0.481 25.629,0 41.149,3.707 81.363,14.226 118.965,31.117 25.174,11.973 43.554,26.801 42.084,53.121 -4.07,27.898 -10.38,55.43 -18.86,82.309 m -383.56,66.019 -3.871,-2.859 -3.875,-2.379 c -75.695,-47.602 -163.297,-73.481 -253.02,-74.649 -121.879,2.379 -166.386,47.848 -169.289,161.75 2.903,133.981 48.371,175.141 200.75,184.688 l 210.887,10.082 H 621.25 V 646.078">
   </path>
   <path id="path16" style="fill:#1782c5;fill-opacity:1;fill-rule:nonzero;stroke:none" d="m 4028.14,419.762 h -99.67 c -13.28,-0.602 -26.23,4.226 -35.81,13.379 -8.52,11.089 -12.63,24.871 -11.61,38.781 v 932.168 c -1.71,14.23 3.09,28.41 13.07,38.77 9.75,8.31 22.45,12.46 35.33,11.49 h 90.13 c 13.03,1.09 26.08,-2.66 36.67,-10.52 9.78,-8.95 14.67,-21.85 13.44,-34.94 v -24.43 -21.04 l 13.85,15.31 c 56.64,62.84 137.31,98.72 222.06,98.59 21.18,-0.52 42.38,-2.61 63.15,-6.24 15.08,-3.27 25.26,-16.89 24.04,-32.04 0.41,-4.16 0.41,-8.31 0,-12.46 l -15.07,-95.69 c -0.82,-15.35 -13.45,-27.57 -28.93,-28.74 -8.56,0.24 -16.71,1.21 -25.27,2.9 -14.66,2.42 -29.33,3.71 -44.41,3.84 -80.67,-6.53 -154.41,-49.38 -199.23,-116.29 V 471.922 c 0.81,-13.672 -3.26,-27.133 -12.22,-37.813 -9.38,-9.629 -22.41,-14.828 -36.27,-14.347">
   </path>
   <path id="path18" style="fill:#1782c5;fill-opacity:1;fill-rule:nonzero;stroke:none" d="m 3200.46,1517.03 c -255.87,0 -448.43,-176.1 -448.43,-576.628 0,-367.031 173.7,-546.961 500.67,-546.961 57.85,0.321 115.55,6.25 172.22,17.688 9.17,0 18.87,4.32 28.03,6.211 30.07,8.469 59.49,19.031 88.05,31.601 20.08,5.688 34.92,22.571 37.73,43.047 -5.59,29.582 -12.88,58.813 -21.76,87.594 -6.28,18.457 -23.84,30.828 -43.56,30.629 -6.27,0 -93.82,-19.152 -99.12,-20.602 -51.39,-13.218 -104.18,-20.148 -157.23,-20.55 -232.7,0 -301.84,110.07 -301.84,334.98 v 16.731 h 609 c 18.14,1.289 32.8,15.156 34.84,33.011 -0.25,2.539 -0.25,5.121 0,7.66 0,39.739 3.38,81.379 3.38,114.389 0,278.04 -136.41,439.75 -402.47,439.75 m 213.82,-466.55 h -456.65 c 6.32,227.77 96.77,321.08 238.96,321.08 142.24,0 220.1,-76.06 220.1,-255.06 0,-13.87 0,-47.84 0,-66.02">
   </path>
   <path id="path20" style="fill:#1782c5;fill-opacity:1;fill-rule:nonzero;stroke:none" d="m 4644.59,0.0820313 h -6.93 c -32.59,-0.5703123 -64.78,2.1484387 -96.97,8.1289087 -17.11,2.86716 -24.04,25.83986 -20.78,57.41796 1.63,19.1016 4.08,38.1091 7.33,56.9531 4.89,24.406 16.71,35.406 28.93,35.406 h 13.86 22 c 16.3,-2.047 32.18,-3.328 48.49,-3.828 103.48,-8.82 198.82,55.328 228.16,153.61 l 55,132.058 5.3,13.91 v 5.723 6.687 l -366.29,957.082 c -0.81,4.12 -0.81,8.35 0,12.46 -0.4,6.08 1.63,12.05 5.71,16.73 4.48,4.39 10.59,6.81 17.11,6.73 h 138.53 c 17.93,1.37 34.23,-9.27 39.93,-25.88 l 241.61,-685.739 16.3,-47.84 16.29,47.84 248.95,680.499 c 4.48,18.18 20.37,31.16 39.52,31.56 h 119.38 c 7.33,0.57 15.08,-1.45 21.19,-5.72 4.48,-3.51 6.52,-8.87 6.11,-14.35 0.41,-6.13 -1.22,-12.17 -3.66,-17.7 L 5060.99,335.531 C 4971.35,96.2617 4858.49,3.89844 4643.78,3.89844">
   </path>
   <path id="path22" style="fill:#1782c5;fill-opacity:1;fill-rule:nonzero;stroke:none" d="m 6291.45,422.141 c -22.81,-0.731 -43.99,11.57 -54.59,31.597 l -218.8,334.953 -7.73,11.481 -7.34,-11.481 -217.98,-334.953 c -11,-20.109 -32.6,-32.367 -55.82,-31.597 H 5609 c -8.16,-0.282 -15.89,2.089 -22.41,6.691 -5.7,5.117 -8.96,12.777 -8.56,20.598 0.41,9.992 3.26,19.75 8.56,28.211 l 315.36,475.214 4.07,4.758 -4.07,4.797 -290.1,445.99 c -4.89,6.45 -7.33,14.07 -7.75,22.01 1.23,17.41 16.31,30.71 33.82,30.15 h 110.01 c 19.56,0.85 38.3,-9.31 48.08,-26.32 l 205.35,-307.7 7.34,-11 6.92,11 204.12,305.8 c 9.79,17.58 28.53,28.46 48.5,28.22 h 117.75 c 17.51,0.8 32.59,-12.62 33.81,-30.15 -0.41,-7.66 -3.26,-15.03 -7.74,-21.04 l -290.5,-445.511 -3.26,-4.796 3.26,-4.797 315.35,-473.727 c 6.52,-8.219 10.19,-18.34 10.19,-28.738 0.41,-7.942 -2.85,-15.629 -8.56,-21.039 -6.93,-4.711 -15.07,-7.051 -23.22,-6.692 h -120.61 l -3.26,-1.929">
   </path>
   <path id="path24" style="fill:#1782c5;fill-opacity:1;fill-rule:nonzero;stroke:none" d="m 1555.3,419.281 c -49.38,-0.293 -98.47,7.778 -145.13,23.938 -35.03,10.961 -66.9,30.191 -92.85,55.98 -61.93,67.922 -67.72,152.16 -68.21,263.172 V 1825.7 c 0.61,6.85 3.91,13.22 9.17,17.69 37.52,41.84 85.36,73.32 138.86,91.41 2.84,0.65 5.82,0.65 8.72,0 9.9,0.09 19.47,-3.7 26.6,-10.51 9.25,-10.2 13.98,-23.66 13.04,-37.37 V 757.129 c -3.18,-48.328 11.25,-96.219 40.62,-134.949 28.03,-26.239 66.04,-39.461 104.51,-36.399 11.12,0 23.71,0 38.71,2.418 29.37,4.68 58.34,11.731 86.57,21.039 5.5,2.301 11.42,3.473 17.4,3.352 18.86,-0.93 35.01,-13.629 40.18,-31.559 7.57,-26.851 13.24,-54.222 16.91,-81.832 0,-22.039 -18.38,-36.879 -37.24,-43.57 -63.48,-24.18 -130.79,-37.117 -198.83,-38.289">
   </path>
   <path id="path26" style="fill:#1782c5;fill-opacity:1;fill-rule:nonzero;stroke:none" d="m 2558.54,581.512 c -5.05,18.179 -21.56,31 -40.62,31.558 -5.83,0.078 -11.57,-1.09 -16.91,-3.34 -39.07,-13.179 -79.73,-20.921 -120.96,-22.98 h -4.81 c -38.8,-2.98 -77.01,10.602 -105.01,37.32 -28.67,37.731 -42.28,84.571 -38.17,131.61 v 3.832 l 6.28,559.408 h 229.26 c 11.37,-0.93 22.65,2.14 31.94,8.63 9.25,7.82 14.1,19.59 13.08,31.56 v 69.41 c 1.55,12.37 -3.14,24.74 -12.59,33.01 -8.96,6 -19.68,8.86 -30.47,8.14 h -231.22 v 348.37 c 0.97,13.58 -3.55,27.04 -12.6,37.32 -7.09,6.61 -16.37,10.36 -26.11,10.52 -3.34,0.61 -6.81,0.61 -10.15,0 -31.73,-10.96 -61.85,-26.08 -89.51,-44.98 -14.83,-11.13 -28.93,-23.3 -42.09,-36.36 -3.75,-4.79 -5.78,-10.68 -5.78,-16.76 l -5.8,-293.35 h -119.98 c -12.27,0.36 -24.16,-3.91 -33.37,-11.94 -7.87,-9.75 -11.82,-22.01 -11.13,-34.46 v -67.47 c -2.07,-13.54 1.8,-27.29 10.64,-37.81 10.51,-8.62 24.2,-12.45 37.73,-10.52 h 112.69 L 2032.25,786.309 V 763.82 c 0,-111.492 5.83,-195.73 68.21,-264.172 65.27,-57.918 151.49,-87.269 238.96,-81.339 68.57,-0.039 136.54,12.82 200.26,37.812 17.92,7.66 37.73,22 36.79,44.008 -3.63,27.133 -9.62,53.851 -17.93,79.93">
   </path>
  </g>
 </g>
</svg>