<svg xmlns="http://www.w3.org/2000/svg" width="203" height="41" viewBox="0 0 203 41" fill="none"><path d="M8.1497 19.423H11.0101C16.7839 19.423 19.5978 16.4524 19.5978 11.3772C19.5978 7.78907 17.9021 3.94559 12.563 3.94559H8.14638V19.423H8.1497ZM0 38.2817V37.1534H2.91013V3.94559H0V2.81738H14.116C22.2657 2.81738 25.1293 6.91618 25.1293 11.3772C25.1293 16.3489 21.4427 19.7819 14.4577 20.2442L26.002 37.1534H28.3779V38.2817H20.6629L8.34216 20.2442H8.1497V37.1534H11.8363V38.2817H0Z" fill="black"></path><path d="M40.2318 21.6796V19.682C40.2318 14.5585 38.629 12.5574 36.1072 12.5574C33.0975 12.5574 31.3056 15.735 30.9174 21.6796H40.2318ZM30.8676 22.8078C30.8211 23.3219 30.8211 23.8325 30.8211 24.3466C30.8211 34.2382 33.1506 37.6711 36.8372 37.6711C40.9618 37.6711 43.9217 34.9041 44.4062 28.5489H45.4747C45.2324 35.6217 41.3003 39.1064 36.3527 39.1064C30.1907 39.1064 25.7773 33.4688 25.7773 25.2712C25.7773 17.0736 30.4827 11.4326 36.2067 11.4326C41.9307 11.4326 45.2789 15.5314 45.2789 22.8113H30.8709L30.8676 22.8078Z" fill="black"></path><path d="M61.4316 21.6796V19.682C61.4316 14.5585 59.8288 12.5574 57.307 12.5574C54.2973 12.5574 52.5054 15.735 52.1172 21.6796H61.4316ZM52.0707 22.8078C52.0243 23.3219 52.0243 23.8325 52.0243 24.3466C52.0243 34.2382 54.3537 37.6711 58.0403 37.6711C62.1649 37.6711 65.1248 34.9041 65.6093 28.5489H66.6778C66.4322 35.6217 62.5034 39.1064 57.5558 39.1064C51.3938 39.1064 46.9805 33.4688 46.9805 25.2712C46.9805 17.0736 51.6858 11.4326 57.4098 11.4326C63.1339 11.4326 66.482 15.5314 66.482 22.8113H52.074L52.0707 22.8078Z" fill="black"></path><path d="M78.171 37.9746C81.4229 37.9746 83.2181 33.9758 83.2181 25.7782C83.2181 16.556 81.2305 12.8643 78.0283 12.8643C75.168 12.8643 73.2268 15.376 73.2268 25.7782C73.2268 35.1075 75.0718 37.9746 78.1743 37.9746M83.2181 38.2817V35.1558H83.1219C82.2492 37.4605 80.5536 39.1028 77.2021 39.1028C72.6428 39.1028 68.1797 34.2346 68.1797 25.3159C68.1797 16.3972 72.3043 11.429 77.2983 11.429C79.724 11.429 81.715 12.8643 82.8299 15.376H82.9261V3.94559H80.6V2.81738H87.4888V37.1535H89.8182V38.2782H83.2214L83.2181 38.2817Z" fill="black"></path><path d="M92.9905 24.9574C95.0279 34.4902 96.8728 37.9749 101.578 37.9749C105.995 37.9749 109.486 34.9008 109.486 30.4915C109.486 20.3445 91.4375 24.2915 91.4375 12.1469C91.4375 6.0988 95.9006 2 102.497 2C106.137 2 109.144 2.86944 111.616 4.0494V14.2964H110.547L108.802 8.35176C107.588 4.30126 105.212 3.12475 102.056 3.12475C97.7887 3.12475 94.7326 6.1471 94.7326 9.88708C94.7326 13.6271 97.3042 14.7553 103.851 17.3705C111.032 20.241 113.554 22.1869 113.554 27.8245C113.554 34.2832 108.411 39.0997 100.941 39.0997C98.1272 39.0997 94.0523 37.7644 91.9153 36.2291V24.9574H92.9838H92.9905Z" fill="#FF0000"></path><path d="M113.997 12.2503H120.401V15.5314H120.497C121.954 12.5091 124.134 11.4326 126.805 11.4326C129.477 11.4326 132.091 13.2267 132.918 15.5314C134.374 12.5091 136.554 11.4326 139.226 11.4326C143.105 11.4326 146.018 13.5855 146.018 18.6055V37.1571H148.54V38.2853H138.937V37.1571H141.459V18.2985C141.459 14.6068 140.195 13.275 138.257 13.275C135.347 13.275 133.309 15.9385 133.309 21.1655V37.1536H135.831V38.2818H126.225V37.1536H128.747V18.295C128.747 14.6033 127.486 13.2716 125.544 13.2716C122.634 13.2716 120.597 15.9351 120.597 21.1621V37.1502H123.122V38.2784H113.516V37.1502H116.038V13.3785H114V12.2503H113.997Z" fill="#FF0000"></path><path d="M154.133 3.53906C155.685 3.53906 156.9 4.71557 156.9 6.46135C156.9 8.20714 155.689 9.38365 154.133 9.38365C152.576 9.38365 151.368 8.20714 151.368 6.46135C151.368 4.71557 152.58 3.53906 154.133 3.53906ZM156.412 37.1575H158.742V38.2857H149.523V37.1575H151.853V13.3755H149.523V12.2507H156.412V37.1575Z" fill="#FF0000"></path><path d="M158.938 12.2503H161.994V6.09863H166.556V12.2503H172.184V13.3785H166.556V34.4935C166.556 36.4394 167.333 37.2606 169.174 37.2606C171.262 37.2606 172.473 35.9288 172.473 32.1371V28.0383H173.541V31.8334C173.541 37.264 171.408 39.1098 167.429 39.1098C163.938 39.1098 161.994 37.1639 161.994 32.9616V13.3854H158.938V12.2572V12.2503Z" fill="#FF0000"></path><path d="M174.469 2.75638H181.65V15.0045H181.746C182.718 13.4657 184.805 11.3645 188.2 11.3645C192.032 11.3645 194.747 13.3104 194.747 18.8963V37.089H197.368V38.2138H187.374V37.089H190.187V18.2787C190.187 14.4869 189.073 13.2069 186.793 13.2069C184.125 13.2069 181.65 15.6669 181.65 20.9974V37.089H184.463V38.2138H174.469V37.089H177.087V3.88113H174.469V2.75293V2.75638Z" fill="#FF0000"></path></svg>
