<svg width="840" height="200" viewBox="0 0 840 200" fill="none" xmlns="http://www.w3.org/2000/svg">
<path d="M29.6219 149.181C20.4048 144.362 13.0946 137.809 7.8822 129.457C2.66977 121.105 -1.83102e-06 111.725 0 101.253L1.44572e-05 18.5673C1.54907e-05 12.6566 2.03413 8.03084 5.97524 4.8185C9.97991 1.60617 15.6373 -1.28926e-06 23.011 0L23.011 101.189C23.011 111.532 26.4436 119.756 33.3723 126.116C40.301 132.477 49.391 135.561 60.7693 135.561C72.1477 135.561 81.2377 132.413 88.1664 126.116C95.0951 119.82 98.5277 111.532 98.5277 101.189L98.5277 18.5031C98.5277 12.3996 100.498 7.83812 104.376 4.69003C108.253 1.60618 113.974 1.59045e-05 121.539 1.72271e-05L121.539 101.189C121.539 111.597 118.932 121.041 113.656 129.457C108.444 137.874 101.134 144.427 91.9168 149.181C82.6997 153.871 72.2748 156.312 60.7693 156.312C49.2638 156.312 38.9025 153.935 29.6219 149.117" fill="white"/>
<path d="M142.959 60.199C142.959 55.252 144.612 51.2687 147.917 48.2491C151.223 45.1653 156.244 43.6876 162.919 43.6876L162.919 55.6375C162.22 56.6654 161.52 57.6291 160.821 58.5928C160.122 59.4923 159.423 60.5202 158.724 61.5482L159.55 62.4476C163.936 56.5369 168.958 51.8469 174.551 48.6346C180.145 45.358 186.947 43.7518 194.893 43.7518C206.97 43.7518 216.696 47.2854 224.197 54.3526C231.634 61.4197 235.384 70.6712 235.384 82.1071L235.384 118.471C235.384 129.907 231.443 139.158 223.561 146.097C215.679 153.036 205.508 156.505 192.986 156.505C186.883 156.505 180.972 155.156 175.314 152.457C169.657 149.759 164.699 146.29 160.63 141.857L159.995 142.949C161.012 144.362 162.474 146.033 164.508 147.767V184.131C164.508 194.732 157.325 200 142.959 200L142.959 60.199ZM207.924 132.027C212.31 128.429 214.535 123.418 214.535 116.993L214.535 83.0066C214.535 76.4534 212.31 71.4422 207.924 67.9086C203.538 64.3108 197.308 62.5761 189.172 62.5761C182.052 62.5761 176.141 64.4393 171.373 68.1656C166.606 71.8919 164.254 76.4534 164.254 81.9786V118.085C164.254 123.611 166.606 128.172 171.182 131.898C175.823 135.625 181.862 137.488 189.362 137.488C197.308 137.488 203.474 135.689 207.86 132.027H207.924Z" fill="white"/>
<path d="M267.294 147.125C262.209 140.957 259.603 132.862 259.603 122.839V52.1036L239.135 52.1036C239.135 46.4499 240.279 42.2096 242.567 39.3828C244.856 36.5559 247.907 35.1425 251.721 35.1425H260.048V14.9048C260.048 9.70077 261.764 5.91021 265.133 3.59732C268.566 1.28444 273.715 0.128002 280.707 0.128003V35.1425L309.057 35.1425C309.057 40.9889 307.913 45.2292 305.498 47.9918C303.146 50.7544 299.523 52.1036 294.501 52.1036H281.088L281.088 122.004C281.088 127.529 282.105 131.448 284.076 133.826C286.046 136.203 289.606 137.423 294.692 137.423C299.777 137.423 304.481 136.074 309.185 133.312C311.473 135.624 312.617 138.516 312.617 142.049C312.617 145.84 310.71 149.18 306.896 152.072C303.082 154.963 297.743 156.44 290.878 156.44C280.262 156.44 272.38 153.357 267.231 147.189L267.294 147.125Z" fill="white"/>
<path d="M344.974 151.173C337.982 147.704 332.579 142.885 328.574 136.846C324.569 130.742 322.599 123.932 322.599 116.415V85.3199C322.599 77.4818 324.696 70.4147 328.892 64.1185C333.087 57.758 338.681 52.811 345.61 49.2132C352.538 45.6154 360.166 43.7523 368.43 43.7523C376.694 43.7523 384.194 45.4869 390.996 48.9563C397.798 52.4256 403.201 57.2441 407.205 63.4118C411.21 69.5795 413.181 76.5824 413.181 84.4205V97.9123C413.181 100.354 412.227 102.538 410.32 104.337C408.413 106.136 406.061 107.035 403.391 107.035L343.321 107.035V115.323C343.321 122.262 345.419 127.916 349.741 132.156C354 136.46 360.23 138.58 368.494 138.58C376.757 138.58 382.923 136.717 387.182 132.991C391.377 129.265 393.475 124.446 393.475 118.279C398.56 117.829 402.756 118.664 405.998 120.784C409.303 122.904 410.892 126.052 410.892 130.228C410.892 134.726 408.922 138.966 405.044 142.949C401.167 146.933 395.954 150.145 389.47 152.651C382.987 155.092 375.994 156.377 368.494 156.377C359.785 156.377 352.03 154.642 345.038 151.173H344.974ZM393.793 90.6524V84.292C393.793 77.4818 391.441 71.9566 386.801 67.6521C382.097 63.3475 375.994 61.2274 368.494 61.2274C360.993 61.2274 354.89 63.3475 350.314 67.652C345.673 71.9566 343.385 77.4818 343.385 84.292V90.6524L393.856 90.6524H393.793Z" fill="white"/>
<path d="M432.757 61.2912C432.757 49.534 439.495 43.6876 452.971 43.6876V57.3721C451.573 58.7856 449.984 60.8415 448.268 63.4756L449.348 64.375C453.861 57.6934 458.629 52.5536 463.651 49.0201C468.609 45.4222 474.52 43.6876 481.386 43.6876C494.162 43.6876 502.871 49.9195 507.575 62.3834C515.521 49.9195 526.327 43.6876 539.93 43.6876C549.846 43.6876 557.665 47.1569 563.259 54.0956C568.853 61.0342 571.65 70.1573 571.65 81.3362V141.6C571.65 146.675 569.933 150.401 566.437 152.779C562.941 155.156 557.665 156.376 550.546 156.376V82.7496C550.546 68.9366 545.079 62.0622 534.146 62.0622C528.17 62.0622 523.085 64.1181 518.89 68.2299C514.694 72.3417 512.597 78.1239 512.597 85.5765V141.535C512.597 146.739 510.88 150.53 507.511 152.907C504.079 155.22 498.93 156.376 491.938 156.376L491.938 82.7496C491.938 76.3892 490.539 71.3137 487.869 67.6516C485.2 63.9253 481.004 62.0622 475.347 62.0622C469.117 62.0622 463.968 64.375 459.9 68.8723C455.896 73.4338 453.861 79.216 453.861 86.2189V141.471C453.861 146.547 452.082 150.273 448.649 152.65C445.153 155.027 439.877 156.248 432.757 156.248V61.1627V61.2912Z" fill="white"/>
<path d="M591.549 60.199C591.549 55.252 593.202 51.2687 596.507 48.2491C599.813 45.1653 604.834 43.6876 611.509 43.6876V55.6375C610.809 56.6654 610.11 57.6291 609.411 58.5928C608.712 59.4923 608.013 60.5202 607.313 61.5482L608.14 62.4476C612.526 56.5369 617.547 51.8469 623.141 48.6346C628.735 45.358 635.537 43.7518 643.483 43.7518C655.497 43.7518 665.286 47.2854 672.787 54.3526C680.224 61.4197 683.974 70.6712 683.974 82.1072L683.974 118.471C683.974 129.907 680.033 139.158 672.151 146.097C664.269 153.036 654.034 156.505 641.576 156.505C635.473 156.505 629.562 155.156 623.904 152.457C618.183 149.759 613.289 146.29 609.22 141.857L608.585 142.949C609.602 144.362 611.064 146.033 613.098 147.767V184.131C613.098 194.732 605.915 200 591.549 200V60.199ZM656.514 132.027C660.9 128.429 663.124 123.418 663.124 116.993L663.125 83.0066C663.125 76.4534 660.9 71.4422 656.514 67.9086C652.127 64.3108 645.898 62.5761 637.762 62.5761C630.642 62.5761 624.73 64.4393 619.963 68.1656C615.195 71.8919 612.844 76.4534 612.844 81.9786V118.085C612.844 123.611 615.195 128.172 619.772 131.898C624.349 135.625 630.451 137.488 637.952 137.488C645.898 137.488 652.064 135.689 656.45 132.027H656.514Z" fill="white"/>
<path d="M723.638 151.365C716.519 148.024 710.988 143.398 706.92 137.552C702.915 131.705 700.881 125.088 700.881 117.828V83.6486C700.881 76.2603 702.916 69.5144 706.857 63.4109C710.861 57.3075 716.392 52.489 723.511 48.9554C730.63 45.3576 738.703 43.6229 747.793 43.6229C756.883 43.6229 764.956 45.4218 772.076 48.9554C779.195 52.489 784.725 57.3075 788.794 63.4109C792.862 69.5144 794.896 76.196 794.896 83.6487V117.828C794.896 125.088 792.862 131.641 788.794 137.552C784.789 143.398 779.131 148.024 771.948 151.365C764.765 154.706 756.692 156.376 747.793 156.376C738.894 156.376 730.885 154.706 723.765 151.365H723.638ZM766.927 131.898C771.631 128.043 773.919 122.903 773.919 116.543V84.5481C773.919 77.8665 771.567 72.4697 766.8 68.4222C762.032 64.3746 755.739 62.3187 747.73 62.3187C739.72 62.3187 733.427 64.3746 728.66 68.4222C723.892 72.4697 721.54 77.8664 721.54 84.5481V116.543C721.54 122.903 723.892 128.043 728.533 131.898C733.237 135.753 739.657 137.68 747.666 137.68C755.676 137.68 762.159 135.753 766.8 131.898H766.927Z" fill="white"/>
<path d="M839.108 139.204L824.735 124.664C824.316 124.249 823.591 124.211 823.172 124.664L808.684 139.015C808.265 139.431 808.265 140.148 808.684 140.564L823.096 155.104C823.515 155.519 824.239 155.557 824.659 155.104L839.146 140.753C839.566 140.337 839.566 139.62 839.146 139.204H839.108Z" fill="white"/>
</svg>
