<svg id="ufcu-logo" class="error-page__logo" viewBox="0 0 232.5 118.1" xmlns="http://www.w3.org/2000/svg">
                <path fill="#021d49" d="M116.25,8.25C56.6,8.25,8.25,31.01,8.25,59.07s48.35,50.82,108,50.82,108-22.76,108-50.82S175.9,8.25,116.25,8.25ZM69.75,81.98v-5.19c-3.59,4.09-7.86,6.14-12.81,6.14-6.07,0-10.04-2.42-11.86-7.25-.76-1.97-1.14-5.45-1.14-10.46v-22.07s9.92,0,9.92,0v22.23c0,3.38.39,5.81,1.18,7.28,1.19,2.18,3.21,3.26,6.07,3.26,3.74,0,6.29-1.6,7.65-4.82.66-1.52.99-3.87.99-7.06v-20.9s9.89,0,9.89,0v38.84s-9.88,0-9.88,0ZM110.75,31.72c-1.35-.45-2.64-.67-3.89-.67-2.54,0-4.15,1.13-4.84,3.38-.24.75-.36,2.14-.36,4.13v4.58h9.01s0,5.27,0,5.27h-9.01s0,33.57,0,33.57h-9.81s0-33.57,0-33.57h-6.07s0-5.27,0-5.27h6.07v-3.72c0-4.48,1-7.84,3-10.12,2.56-2.89,5.95-4.32,10.15-4.32,2.56,0,5.05.57,7.47,1.71l-1.72,5.04ZM133.56,82.92c-5.71,0-10.44-1.88-14.19-5.64-3.75-3.77-5.62-8.62-5.62-14.57,0-5.92,1.96-10.82,5.9-14.69,3.92-3.88,8.91-5.83,14.93-5.83,4.25,0,8.06,1.06,11.42,3.18l-2.93,5.46c-2.45-1.19-4.85-1.79-7.21-1.79-3.53,0-6.34,1.2-8.45,3.6-2.11,2.41-3.16,5.61-3.16,9.6,0,4.14,1.08,7.48,3.23,10.01,2.15,2.52,4.96,3.79,8.45,3.79,2.43,0,5.05-.8,7.87-2.4l2.71,5.5c-3.87,2.5-8.2,3.75-12.96,3.75ZM178.67,81.98v-5.19c-3.59,4.09-7.86,6.14-12.81,6.14-6.07,0-10.04-2.42-11.86-7.25-.76-1.97-1.14-5.45-1.14-10.46v-22.07s9.92,0,9.92,0v22.23c0,3.38.39,5.81,1.18,7.28,1.19,2.18,3.21,3.26,6.07,3.26,3.74,0,6.29-1.6,7.65-4.82.66-1.52.99-3.87.99-7.06v-20.9s9.89,0,9.89,0v38.84s-9.89,0-9.89,0ZM193.83,81.98c-1.47,0-2.64-1.15-2.64-2.64,0-1.46,1.17-2.63,2.64-2.63h.02c1.47,0,2.61,1.17,2.61,2.63s-1.14,2.64-2.63,2.64Z"></path>
                <path fill="#021d49" d="M193.77,78.44c-.16,0-.27.02-.33.03v.75h.28c.33,0,.6-.11.6-.38,0-.24-.17-.4-.55-.4Z"></path>
                <path fill="#021d49" d="M193.83,77.23h-.01c-1.13,0-1.97.95-1.97,2.1s.85,2.1,2,2.1c1.13.02,1.96-.93,1.96-2.1s-.83-2.1-1.97-2.1ZM194.44,80.7c-.08-.1-.12-.32-.2-.63-.05-.29-.2-.42-.53-.42h-.28v1.04h-.59v-2.61c.23-.05.56-.1.99-.1.49,0,.7.08.89.21.14.11.25.32.25.56,0,.3-.22.53-.53.62v.03c.25.08.39.29.47.64.08.4.12.56.19.64h-.64Z"></path>

                <path fill="#ff671d" d="M196.13,15.67C174.66,5.57,146.29,0,116.25,0S57.84,5.57,36.37,15.67C12.92,26.71,0,42.12,0,59.07s12.92,32.37,36.37,43.4c21.47,10.11,49.84,15.67,79.88,15.67s58.41-5.57,79.88-15.67c23.45-11.04,36.37-26.45,36.37-43.4s-12.92-32.37-36.37-43.4ZM193.79,97.5c-20.76,9.77-48.29,15.15-77.54,15.15s-56.78-5.38-77.54-15.15C17.29,87.42,5.5,73.78,5.5,59.07s11.79-28.35,33.21-38.43c20.76-9.77,48.29-15.15,77.54-15.15s56.78,5.38,77.54,15.15c21.42,10.08,33.21,23.73,33.21,38.43s-11.79,28.35-33.21,38.43Z"></path>
                <path fill="#fff" d="M193.79,20.65c-20.76-9.77-48.29-15.15-77.54-15.15s-56.78,5.38-77.54,15.15C17.29,30.73,5.5,44.37,5.5,59.07s11.79,28.35,33.21,38.43c20.76,9.77,48.29,15.15,77.54,15.15s56.78-5.38,77.54-15.15c21.42-10.08,33.21-23.73,33.21-38.43s-11.79-28.35-33.21-38.43ZM116.25,109.9c-59.65,0-108-22.76-108-50.82S56.6,8.25,116.25,8.25s108,22.76,108,50.82-48.35,50.82-108,50.82ZM193.85,76.71h-.02c-1.47,0-2.64,1.17-2.64,2.63,0,1.49,1.17,2.64,2.64,2.64,1.49,0,2.63-1.15,2.63-2.64s-1.14-2.63-2.61-2.63ZM193.85,81.43c-1.16,0-2-.93-2-2.1s.85-2.1,1.97-2.1h.01c1.14,0,1.97.95,1.97,2.1s-.83,2.11-1.96,2.1ZM194.43,79.41v-.03c.31-.1.53-.32.53-.62,0-.24-.11-.45-.25-.56-.19-.13-.41-.21-.89-.21-.42,0-.75.05-.99.1v2.61h.6v-1.04h.28c.33,0,.49.13.53.42.08.3.13.53.2.63h.64c-.06-.08-.11-.24-.19-.64-.08-.35-.22-.56-.47-.64ZM193.72,79.22h-.28v-.75c.06-.02.17-.03.33-.03.38,0,.55.16.55.4,0,.27-.27.38-.6.38ZM79.64,43.14v38.84s-9.88,0-9.88,0v-5.19c-3.59,4.09-7.86,6.14-12.81,6.14-6.07,0-10.04-2.42-11.86-7.25-.76-1.97-1.14-5.45-1.14-10.46v-22.07s9.92,0,9.92,0v22.23c0,3.38.39,5.81,1.18,7.28,1.19,2.18,3.21,3.26,6.07,3.26,3.74,0,6.29-1.6,7.65-4.82.66-1.52.99-3.87.99-7.06v-20.9s9.89,0,9.89,0ZM105,24.98c2.56,0,5.05.57,7.47,1.71l-1.72,5.04c-1.35-.45-2.64-.67-3.89-.67-2.54,0-4.15,1.13-4.84,3.38-.24.75-.36,2.14-.36,4.13v4.58h9.01s0,5.27,0,5.27h-9.01s0,33.57,0,33.57h-9.81s0-33.57,0-33.57h-6.07s0-5.27,0-5.27h6.07v-3.72c0-4.48,1-7.84,3-10.12,2.56-2.89,5.95-4.32,10.15-4.32ZM143.8,73.67l2.71,5.5c-3.87,2.5-8.2,3.75-12.96,3.75-5.71,0-10.44-1.88-14.19-5.64-3.75-3.77-5.62-8.62-5.62-14.57,0-5.92,1.96-10.82,5.9-14.69,3.92-3.88,8.91-5.83,14.93-5.83,4.25,0,8.06,1.06,11.42,3.18l-2.93,5.46c-2.45-1.19-4.85-1.79-7.21-1.79-3.53,0-6.34,1.2-8.45,3.6-2.11,2.41-3.16,5.61-3.16,9.6,0,4.14,1.08,7.48,3.23,10.01,2.15,2.52,4.96,3.79,8.45,3.79,2.43,0,5.05-.8,7.87-2.4ZM188.55,43.14v38.84s-9.89,0-9.89,0v-5.19c-3.59,4.09-7.86,6.14-12.81,6.14-6.07,0-10.04-2.42-11.86-7.25-.76-1.97-1.14-5.45-1.14-10.46v-22.07s9.92,0,9.92,0v22.23c0,3.38.39,5.81,1.18,7.28,1.19,2.18,3.21,3.26,6.07,3.26,3.74,0,6.29-1.6,7.65-4.82.66-1.52.99-3.87.99-7.06v-20.9s9.89,0,9.89,0Z"></path>

            </svg>