<svg fill="none" height="24" viewBox="0 0 105 24" width="105" xmlns="http://www.w3.org/2000/svg"><g><path d="M44.467 21.7061C44.189 20.9466 43.9607 20.1601 43.86 18.9959C42.8733 20.8708 40.8469 21.9084 38.5674 21.9084C34.7169 21.9084 32.0825 19.2999 32.0825 14.7657C32.0825 10.2315 34.8933 7.39578 39.4524 7.39578C41.0482 7.39578 42.5423 7.67386 43.7843 8.30678V3.14068L45.7598 2.55859V17.2995C45.7598 19.1993 45.8107 20.1611 46.2153 21.7071H44.467V21.7061ZM43.7822 14.6391V10.3332C42.6181 9.52282 41.402 9.19287 39.5012 9.19287C36.1083 9.19287 34.1576 11.2452 34.1576 14.7647C34.1576 18.2841 35.9568 20.0833 38.8433 20.0833C42.1854 20.0833 43.7822 17.7788 43.7822 14.6381V14.6402V14.6391Z" fill="#454545"></path><path d="M61.943 21.6979L67.4639 14.606L62.1961 7.79224H64.7039L68.7318 13.1109L72.7348 7.79224H75.2924L69.9987 14.606L75.5446 21.6979H73.0118L68.7308 16.1012L64.4757 21.6979H61.943Z" fill="#454545"></path><path d="M89.4678 21.8502C87.1125 21.5722 85.718 20.6082 83.7954 17.7466L82.0222 15.1122L79.2363 17.8722V21.6977H77.2856V3.14165L79.2363 2.55957V15.5698L86.6321 7.79415H89.3423L83.3658 13.7955L85.3414 16.7837C86.6083 18.6835 87.6459 19.6454 89.4699 19.9743V21.8492H89.4678V21.8502Z" fill="#454545"></path><path d="M89.6951 14.665C89.6951 10.3082 92.1271 7.39575 96.7361 7.39575C101.345 7.39575 103.777 10.3082 103.777 14.665C103.777 19.0218 101.346 21.9084 96.7361 21.9084C92.1261 21.9084 89.6951 18.9959 89.6951 14.665ZM101.701 14.665C101.701 11.4236 100.054 9.3215 96.7371 9.3215C93.42 9.3215 91.7733 11.4236 91.7733 14.665C91.7733 17.9064 93.3951 20.0086 96.7371 20.0086C100.079 20.0086 101.701 17.8805 101.701 14.665Z" fill="#454545"></path><path d="M60.1946 17.6408V13.7281C60.1946 9.47298 57.8923 7.39575 54.0667 7.39575C52.5207 7.39575 50.5981 7.69976 48.9504 8.78922L49.684 10.4618C51.3306 9.60164 52.7479 9.32253 53.9391 9.32253C56.5984 9.32253 58.1184 10.6382 58.2201 13.2487H56.1937C52.8009 13.2487 47.9128 13.7042 47.9128 17.7829C47.9128 20.5937 49.9143 21.9115 52.6743 21.9115C55.1313 21.9115 57.2842 20.7224 58.3218 18.7458C58.3799 20.2316 58.6217 20.9496 58.9018 21.7091H60.6501C60.2455 20.1632 60.1967 19.5448 60.1967 17.6439L60.1946 17.6398V17.6408ZM52.9513 20.0106C51.1521 20.0106 49.988 19.2511 49.988 17.7311C49.988 15.1983 53.2294 14.8445 55.483 14.8445H58.243C58.243 17.9344 56.2415 20.0106 52.9503 20.0106H52.9513Z" fill="#454545"></path></g><path d="M23.6833 19.718V4.4905C23.6833 3.37095 22.3303 2.80858 21.5386 3.60233L15.8153 9.32561C14.2797 10.8612 14.2797 13.3504 15.8153 14.886L21.5386 20.6093C22.3303 21.4009 23.6833 20.8407 23.6833 19.7211V19.717V19.718Z" fill="#B81CB5"></path><path d="M9.07108 16.0677L3.34779 21.791C2.55612 22.5827 3.11641 23.9357 4.23596 23.9357H19.4635C20.583 23.9357 21.1454 22.5827 20.3516 21.791L14.6283 16.0677C13.0927 14.5321 10.6036 14.5321 9.06796 16.0677H9.07211H9.07108Z" fill="#038BED"></path><path d="M14.6315 8.14164L20.3547 2.41836C21.1464 1.62668 20.5851 0.273682 19.4645 0.273682H4.237C3.11746 0.273682 2.55509 1.62668 3.34884 2.41836L9.07212 8.14164C10.6077 9.67726 13.0969 9.67726 14.6325 8.14164H14.6304H14.6315Z" fill="#FBB03B"></path><path d="M7.88824 9.32452L2.16495 3.60331C1.37328 2.80956 0.0202789 3.37193 0.0202789 4.49147V19.719C0.0202789 20.8385 1.37328 21.4009 2.16495 20.6071L7.88824 14.8839C9.42385 13.3482 9.42385 10.8591 7.88824 9.32348V9.32555V9.32452Z" fill="#E8236B"></path></svg>